<svg xmlns="http://www.w3.org/2000/svg" viewBox="0 0 320 132">
  <path d="M0 0h320v132H0z"/>
  <g fill="#fff">
    <path d="M52.62374708 50.00026535A15.99967878 15.99974198 0 0 0 36.6240683 66.00000734a15.99967878 15.99974198 0 0 0 15.99967878 15.99974198 15.99967878 15.99974198 0 0 0 15.99967878-15.99974198 15.99967878 15.99974198 0 0 0-1.99128827-7.72189075 7.99983939 7.999871 0 0 1-6.00903966 2.72215458 7.99983939 7.999871 0 0 1-3.58246243-.86471888 4.46916218 4.46917984 0 0 1-4.41688842 3.80329744 4.46916218 4.46917984 0 0 1-4.46916218-4.46917983 4.46916218 4.46917984 0 0 1 4.46916218-4.46917984 4.46916218 4.46917984 0 0 1 .27065105.00879375 7.99983939 7.999871 0 0 1-.27065105-2.00888363 7.99983939 7.999871 0 0 1 .6038352-2.98499004 15.99967878 15.99974198 0 0 0-.6038352-.01465625z"/>
    <path d="m346.41034 920.3311 22.7345-61.05836h8.44424l-22.7345 61.05836zm51.31503-6.49557q-5.19645 0-8.44424-3.70247-3.18283-3.70248-3.18283-9.93823v-9.6784q0-6.3007 3.18283-10.00317 3.18283-3.70248 8.44424-3.70248 3.70248 0 6.23575 1.88372 2.59823 1.88371 3.63752 5.26141l-.25982-8.18442v-10.00318h8.11946v47.41766h-7.9246v-6.49557q-.97433 3.3777-3.5076 5.26142-2.53328 1.88371-6.30071 1.88371zm3.05292-7.01521q3.11787 0 4.80672-1.88372 1.75381-1.88372 1.75381-5.32637v-8.57415q0-3.44265-1.75381-5.32637-1.68885-1.88371-4.80672-1.88371-3.11787 0-4.87168 1.68884-1.68885 1.68885-1.68885 5.19646v9.22371q0 3.50761 1.68885 5.19646 1.75381 1.68885 4.87168 1.68885zm39.23327 7.01521q-4.5469 0-7.9246-1.7538-3.37769-1.75381-5.26141-4.93664-1.81876-3.24778-1.81876-7.59981v-8.44425q0-4.35203 1.81876-7.53486 1.88372-3.24778 5.26141-5.00159 3.3777-1.7538 7.9246-1.7538 4.48194 0 7.79468 1.7538 3.3777 1.75381 5.19646 4.93664 1.88372 3.11787 1.88372 7.33999v6.49557h-22.08494v2.46832q0 3.63752 1.88371 5.52123 1.88372 1.81876 5.32637 1.81876 2.53327 0 4.28708-.84442 1.81876-.90938 2.14353-2.59823h8.05451q-.84442 4.61186-4.80672 7.40495-3.9623 2.72814-9.6784 2.72814zm-7.21008-22.99432v1.23416l14.29025-.065v-1.23415q0-3.70248-1.81876-5.71611-1.81876-2.01362-5.26141-2.01362-3.57256 0-5.39132 2.07858-1.81876 2.01363-1.81876 5.7161zm40.98706 22.34476-12.0168-35.72563h8.5092l6.8853 21.6952q.64956 1.94867 1.10425 3.9623.51964 1.94867.71451 3.3777.25982-1.42903.64956-3.3777.45469-2.01363 1.03929-3.89734l6.82035-21.76016h8.57415l-11.95185 35.72563zm33.71204-17.66795v-7.53486h20.78583v7.53486zm49.95097 18.31751q-4.61186 0-8.05451-1.68885-3.3777-1.7538-5.26141-4.87167-1.88372-3.18283-1.88372-7.46991v-8.96389q0-4.28707 1.88372-7.40495 1.88371-3.18283 5.26141-4.87168 3.44265-1.7538 8.05451-1.7538 6.69043 0 10.71769 3.50761 4.09221 3.44265 4.28707 9.41858h-7.98955q-.19486-2.7931-2.14354-4.28708-1.88371-1.55894-4.87167-1.55894-3.31274 0-5.19646 1.81876-1.88372 1.75381-1.88372 5.06655v9.02884q0 3.31274 1.88372 5.1315 1.88372 1.81876 5.19646 1.81876 3.05291 0 4.93663-1.49398 1.88372-1.55894 2.07858-4.35203h7.98955q-.19486 5.97592-4.28707 9.48353-4.02726 3.44265-10.71769 3.44265zm38.45379 0q-4.5469 0-7.9246-1.7538-3.3777-1.75381-5.26141-4.93664-1.81876-3.24778-1.81876-7.59981v-8.44425q0-4.35203 1.81876-7.53486 1.88371-3.24778 5.26141-5.00159 3.3777-1.7538 7.9246-1.7538 4.48194 0 7.79468 1.7538 3.3777 1.75381 5.19646 4.93664 1.88371 3.11787 1.88371 7.33999v6.49557h-22.08494v2.46832q0 3.63752 1.88372 5.52123 1.88371 1.81876 5.32637 1.81876 2.53327 0 4.28707-.84442 1.81876-.90938 2.14354-2.59823h8.05451q-.84443 4.61186-4.80673 7.40495-3.96229 2.72814-9.67839 2.72814zm-7.21009-22.99432v1.23416l14.29026-.065v-1.23415q0-3.70248-1.81876-5.71611-1.81876-2.01362-5.26141-2.01362-3.57257 0-5.39133 2.07858-1.81876 2.01363-1.81876 5.7161zm49.69114 22.34476q-5.00159 0-7.98955-2.85805-2.92301-2.923-2.92301-7.85964v-17.66795h-9.87326v-7.33999h9.87326V867.3922h8.18442v10.06814h14.2253v7.33999h-14.2253v17.47309q0 1.55893.84443 2.59822.90938.97434 2.46831.97434h10.58778v7.33999zm35.46584.64956q-4.54689 0-7.92459-1.7538-3.3777-1.75381-5.26141-4.93664-1.81876-3.24778-1.81876-7.59981v-8.44425q0-4.35203 1.81876-7.53486 1.88371-3.24778 5.26141-5.00159 3.3777-1.7538 7.92459-1.7538 4.48195 0 7.79469 1.7538 3.3777 1.75381 5.19646 4.93664 1.88371 3.11787 1.88371 7.33999v6.49557h-22.08494v2.46832q0 3.63752 1.88372 5.52123 1.88371 1.81876 5.32636 1.81876 2.53328 0 4.28708-.84442 1.81876-.90938 2.14354-2.59823h8.05451q-.84443 4.61186-4.80673 7.40495-3.96229 2.72814-9.6784 2.72814zm-7.21008-22.99432v1.23416l14.29026-.065v-1.23415q0-3.70248-1.81876-5.71611-1.81876-2.01362-5.26142-2.01362-3.57256 0-5.39132 2.07858-1.81876 2.01363-1.81876 5.7161zm32.93257 22.34476v-35.72563h7.9246v6.95026q.64955-3.50761 3.18283-5.52124 2.59822-2.07858 6.69043-2.07858 5.45628 0 8.5092 3.50761 3.05292 3.50761 3.05292 9.80831v3.3777h-8.11946v-2.98797q0-3.24778-1.68885-4.93663-1.68885-1.7538-4.80672-1.7538-3.24779 0-4.93664 1.94867-1.68885 1.94867-1.68885 5.52123v21.89007zm48.19716.64956q-5.45628 0-8.63911-3.05292-3.11787-3.11787-3.11787-8.11946 0-5.19646 3.57256-8.24937 3.57257-3.11788 9.80831-3.11788h8.70407v-2.53327q0-5.39132-6.30071-5.39132-2.85805 0-4.5469 1.10424-1.68884 1.10425-1.88371 3.11788h-7.79469q.25983-4.80673 4.02726-7.79469 3.83238-2.98796 10.263-2.98796 6.82035 0 10.58778 3.18283t3.76743 8.96389v24.22847h-7.9246v-6.69043q-.45469 3.44265-3.24778 5.39132-2.7931 1.94867-7.27504 1.94867zm2.59823-6.62548q3.57256 0 5.65114-1.7538 2.07859-1.75381 2.07859-4.67682v-4.22212h-8.31433q-2.66319 0-4.22212 1.49399-1.55894 1.49398-1.55894 3.83238 0 2.40336 1.62389 3.89734 1.68885 1.42903 4.74177 1.42903z" paint-order="stroke" transform="matrix(.48853981 0 0 .48854174 -91.319134 -368.70541)"/>
  </g>
</svg>