<svg width="1584" height="396" viewBox="0 0 1584 396" xmlns="http://www.w3.org/2000/svg">
  <defs>
    <!-- Define the clipping area for the banner -->
    <clipPath id="banner-clip">
      <rect x="0" y="0" width="1584" height="396" />
    </clipPath>

    <!-- Definition for the scrolling Rust code -->
    <text id="code-block" font-family="Courier New, monospace" font-size="32" fill="grey">
      <tspan x="20" y="38">fn main() {</tspan>
      <tspan x="40" dy="38">let first_stage = Stage {</tspan>
      <tspan x="60" dy="38">name: "S-IC - Saturn V First Stage",</tspan>
      <tspan x="60" dy="38">wet_mass_kg: 2_290_000.0,</tspan>
      <tspan x="60" dy="38">dry_mass_kg: 130_000.0,</tspan>
      <tspan x="60" dy="38">exhaust_velocity_ms: 2_580.0,</tspan>
      <tspan x="40" dy="38">};</tspan>
      <tspan x="40" dy="38"> </tspan>
      <tspan x="40" dy="38">let stage_one_dv = calculate_delta_v(&amp;first_stage);</tspan>
      <tspan x="40" dy="38">println!("Stage 1 Delta-V: {:.2} km/s", stage_one_dv / 1000.0);</tspan>
      <tspan x="20" dy="38">}</tspan>
      <tspan x="20" dy="38"> </tspan>
      <tspan x="20" dy="38">struct Stage {</tspan>
      <tspan x="40" dy="38">name: &amp;apos;static str,</tspan>
      <tspan x="40" dy="38">wet_mass_kg: f64,</tspan>
      <tspan x="40" dy="38">dry_mass_kg: f64,</tspan>
      <tspan x="40" dy="38">exhaust_velocity_ms: f64,</tspan>
      <tspan x="20" dy="38">}</tspan>
    </text>

    <!-- CSS for the scrolling animation -->
    <style>
      @keyframes scroll {
        from { transform: translateY(0); }
        to { transform: translateY(-684px); }
      }
      .scrolling-text {
        animation: scroll 4s linear infinite;
      }
    </style>
    
    <!-- The static logo is defined here as a symbol -->
    <symbol id="dev-logo" viewBox="0 0 135.46666 55.880054">
      <g transform="translate(-831.71999,2358.6999)">
        <g transform="matrix(0.42300806,0,0,0.42300806,417.47166,-2288.364)">
          <rect 
            fill="#000000"
            width="320.24606"
            height="132.10144"
            x="979.29175"
            y="-166.27551" />
          <g transform="matrix(0.4889252,0,0,0.4889252,854.72147,-583.94822)">
            <g transform="translate(53.126748,97.656703)">
              <g transform="translate(14.479517,1.9019448)">
                <text
                  fill="#ffffff"
                  font-family="'JetBrainsMonoNL Nerd Font'"
                  font-size="64.9557px"
                  font-weight="bold"
                  xml:space="preserve"
                  x="342.51321"
                  y="913.18628">
                  <tspan x="342.51321" y="913.18628">/dev-cetera</tspan>
                </text>
                <path
                  fill="#ffffff"
                  d="m 294.63863,857.05225 a 32.750023,32.750023 0 0 0 -32.74987,32.75013 32.750023,32.750023 0 0 0 32.74987,32.74987 32.750023,32.750023 0 0 0 32.75013,-32.74987 32.750023,32.750023 0 0 0 -4.07575,-15.80678 16.375012,16.375012 0 0 1 -12.29931,5.57223 16.375012,16.375012 0 0 1 -7.33366,-1.76988 9.1480503,9.1480503 0 0 1 -9.04141,7.7848 9.1480503,9.1480503 0 0 1 -9.14794,-9.14798 9.1480503,9.1480503 0 0 1 9.14794,-9.14796 9.1480503,9.1480503 0 0 1 0.5543,0.0186 16.375012,16.375012 0 0 1 -0.5543,-4.11255 16.375012,16.375012 0 0 1 1.23652,-6.11011 32.750023,32.750023 0 0 0 -1.23652,-0.0304 z" />
              </g>
            </g>
          </g>
        </g>
      </g>
    </symbol>
  </defs>

  <!-- Layer 1: PowerShell Blue Background -->
  <rect x="0" y="0" width="1584" height="396" fill="#012456"/>

  <!-- Layer 2: The Animated Scrolling Text -->
  <g clip-path="url(#banner-clip)">
    <g class="scrolling-text">
      <use href="#code-block" />
      <use href="#code-block" y="684" />
    </g>
  </g>
  
  <!-- 
    Layer 3: The Static Logo with new size and position.
    
    SIZE:
    - width="512" (as requested)
    - height="211.2" (calculated to maintain aspect ratio)

    POSITION (no padding):
    - x = 1584 (banner width) - 512 (logo width) = 1072
    - y = 396 (banner height) - 211.2 (logo height) = 184.8
  -->
  <use href="#dev-logo" x="1072" y="184.8" width="512" height="211.2" />

</svg>