<svg 
  xmlns="http://www.w3.org/2000/svg" 
  viewBox="0 0 84.667 34.925" 
  xml:space="preserve">
  <rect 
    fill="#000" 
    width="100%" 
    height="100%" />
  <g 
    fill="#fff" 
    transform="translate(-24.196 -97.555) scale(.12926)">
    <text
      font-family="JetBrainsMonoNL Nerd Font"
      font-size="64.9557px"
      font-weight="bold"
      stroke="#fff"
      stroke-width="1.5"
      stroke-linejoin="round"
      xml:space="preserve"
      x="342.513"
      y="913.186">
      <tspan x="342.513" y="913.186">/dev-cetera</tspan>
    </text>
    <path 
      d="M294.639 857.052a32.75 32.75 0 0 0-32.75 32.75 32.75 32.75 0 0 0 32.75 32.75 32.75 32.75 0 0 0 32.75-32.75 32.75 32.75 0 0 0-4.076-15.806 16.375 16.375 0 0 1-12.3 5.572 16.375 16.375 0 0 1-7.333-1.77 9.148 9.148 0 0 1-9.041 7.785 9.148 9.148 0 0 1-9.148-9.148 9.148 9.148 0 0 1 9.148-9.148 9.148 9.148 0 0 1 .554.018 16.375 16.375 0 0 1-.554-4.112 16.375 16.375 0 0 1 1.236-6.11 32.75 32.75 0 0 0-1.236-.03z" />
  </g>
</svg>