<svg width="1584" height="396" viewBox="0 0 1584 396" xmlns="http://www.w3.org/2000/svg">
  <defs>
    <!-- Clipping area for the banner -->
    <clipPath id="banner-clip">
      <rect x="0" y="0" width="1584" height="396" />
    </clipPath>

    <!-- Scrolling Rust code -->
    <text id="code-block" font-family="Courier New, monospace" font-size="32" fill="grey">
      <tspan x="20" y="38">fn main() {</tspan>
      <tspan x="40" dy="38">let first_stage = Stage {</tspan>
      <tspan x="60" dy="38">name: "S-IC - Saturn V First Stage",</tspan>
      <tspan x="60" dy="38">wet_mass_kg: 2_290_000.0,</tspan>
      <tspan x="60" dy="38">dry_mass_kg: 130_000.0,</tspan>
      <tspan x="60" dy="38">exhaust_velocity_ms: 2_580.0,</tspan>
      <tspan x="40" dy="38">};</tspan>
      <tspan x="40" dy="38"> </tspan>
      <tspan x="40" dy="38">let stage_one_dv = calculate_delta_v(&amp;first_stage);</tspan>
      <tspan x="40" dy="38">println!("Stage 1 Delta-V: {:.2} km/s", stage_one_dv / 1000.0);</tspan>
      <tspan x="20" dy="38">}</tspan>
      <tspan x="20" dy="38"> </tspan>
      <tspan x="20" dy="38">struct Stage {</tspan>
      <tspan x="40" dy="38">name: &amp;apos;static str,</tspan>
      <tspan x="40" dy="38">wet_mass_kg: f64,</tspan>
      <tspan x="40" dy="38">dry_mass_kg: f64,</tspan>
      <tspan x="40" dy="38">exhaust_velocity_ms: f64,</tspan>
      <tspan x="20" dy="38">}</tspan>
    </text>

    <!-- Scrolling Animation CSS -->
    <style>
      @keyframes scroll {
        from { transform: translateY(0); }
        to { transform: translateY(-684px); }
      }
      .scrolling-text {
        animation: scroll 4s linear infinite;
      }
    </style>
    
    <!-- Logo Code -->
    <symbol id="dev-logo" viewBox="0 0 84.667 34.925">
      <rect 
        fill="#000" 
        width="100%" 
        height="100%" />
      <g 
        fill="#fff" 
        transform="translate(-24.196 -97.555) scale(.12926)">
        <text
          font-family="JetBrainsMonoNL Nerd Font"
          font-size="64.9557px"
          font-weight="bold"
          stroke="#fff"
          stroke-width="1.5"
          stroke-linejoin="round"
          xml:space="preserve"
          x="342.513"
          y="913.186">
          <tspan x="342.513" y="913.186">/dev-cetera</tspan>
        </text>
        <path 
          d="M294.639 857.052a32.75 32.75 0 0 0-32.75 32.75 32.75 32.75 0 0 0 32.75 32.75 32.75 32.75 0 0 0 32.75-32.75 32.75 32.75 0 0 0-4.076-15.806 16.375 16.375 0 0 1-12.3 5.572 16.375 16.375 0 0 1-7.333-1.77 9.148 9.148 0 0 1-9.041 7.785 9.148 9.148 0 0 1-9.148-9.148 9.148 9.148 0 0 1 9.148-9.148 9.148 9.148 0 0 1 .554.018 16.375 16.375 0 0 1-.554-4.112 16.375 16.375 0 0 1 1.236-6.11 32.75 32.75 0 0 0-1.236-.03z" />
      </g>
    </symbol>
  </defs>

  <!-- Layer 1: PowerShell Blue Background -->
  <rect x="0" y="0" width="1584" height="396" fill="#012456"/>

  <!-- Layer 2: The Animated Scrolling Text -->
  <g clip-path="url(#banner-clip)">
    <g class="scrolling-text">
      <use href="#code-block" />
      <use href="#code-block" y="684" />
    </g>
  </g>
  
  <!-- Layer 3: Logo -->
  <use href="#dev-logo" x="1072" y="184.8" width="512" height="211.2" />

</svg>