<svg width="1584" height="396" viewBox="0 0 1584 396" xmlns="http://www.w3.org/2000/svg">
  <defs>
    <!-- Clipping area for the banner -->
    <clipPath id="banner-clip">
      <rect x="0" y="0" width="1584" height="396" />
    </clipPath>

    <!-- Scrolling Rust code -->
    <text id="code-block" font-family="Courier New, monospace" font-size="32" fill="grey">
      <tspan x="20" y="38">fn main() {</tspan>
      <tspan x="40" dy="38">let first_stage = Stage {</tspan>
      <tspan x="60" dy="38">name: "S-IC - Saturn V First Stage",</tspan>
      <tspan x="60" dy="38">wet_mass_kg: 2_290_000.0,</tspan>
      <tspan x="60" dy="38">dry_mass_kg: 130_000.0,</tspan>
      <tspan x="60" dy="38">exhaust_velocity_ms: 2_580.0,</tspan>
      <tspan x="40" dy="38">};</tspan>
      <tspan x="40" dy="38"> </tspan>
      <tspan x="40" dy="38">let stage_one_dv = calculate_delta_v(&amp;first_stage);</tspan>
      <tspan x="40" dy="38">println!("Stage 1 Delta-V: {:.2} km/s", stage_one_dv / 1000.0);</tspan>
      <tspan x="20" dy="38">}</tspan>
      <tspan x="20" dy="38"> </tspan>
      <tspan x="20" dy="38">struct Stage {</tspan>
      <tspan x="40" dy="38">name: &amp;apos;static str,</tspan>
      <tspan x="40" dy="38">wet_mass_kg: f64,</tspan>
      <tspan x="40" dy="38">dry_mass_kg: f64,</tspan>
      <tspan x="40" dy="38">exhaust_velocity_ms: f64,</tspan>
      <tspan x="20" dy="38">}</tspan>
    </text>

    <!-- Scrolling Animation CSS -->
    <style>
      @keyframes scroll {
        from { transform: translateY(0); }
        to { transform: translateY(-684px); }
      }
      .scrolling-text {
        animation: scroll 4s linear infinite;
      }
    </style>
    
    <!-- Logo Code -->
    <symbol id="dev-logo" viewBox="0 0 320 132">
      <rect fill="#000000" width="100%" height="100%" />
      <g transform="matrix(0.48853981,0,0,0.48854174,-91.319134,-368.70541)" fill="#ffffff">
          <path d="m 346.41034,920.3311 22.7345,-61.05836 h 8.44424 l -22.7345,61.05836 z m 51.31503,-6.49557 q -5.19645,0 -8.44424,-3.70247 -3.18283,-3.70248 -3.18283,-9.93823 v -9.6784 q 0,-6.3007 3.18283,-10.00317 3.18283,-3.70248 8.44424,-3.70248 3.70248,0 6.23575,1.88372 2.59823,1.88371 3.63752,5.26141 l -0.25982,-8.18442 v -10.00318 h 8.11946 v 47.41766 h -7.9246 v -6.49557 q -0.97433,3.3777 -3.5076,5.26142 -2.53328,1.88371 -6.30071,1.88371 z m 3.05292,-7.01521 q 3.11787,0 4.80672,-1.88372 1.75381,-1.88372 1.75381,-5.32637 v -8.57415 q 0,-3.44265 -1.75381,-5.32637 -1.68885,-1.88371 -4.80672,-1.88371 -3.11787,0 -4.87168,1.68884 -1.68885,1.68885 -1.68885,5.19646 v 9.22371 q 0,3.50761 1.68885,5.19646 1.75381,1.68885 4.87168,1.68885 z m 39.23327,7.01521 q -4.5469,0 -7.9246,-1.7538 -3.37769,-1.75381 -5.26141,-4.93664 -1.81876,-3.24778 -1.81876,-7.59981 v -8.44425 q 0,-4.35203 1.81876,-7.53486 1.88372,-3.24778 5.26141,-5.00159 3.3777,-1.7538 7.9246,-1.7538 4.48194,0 7.79468,1.7538 3.3777,1.75381 5.19646,4.93664 1.88372,3.11787 1.88372,7.33999 v 6.49557 h -22.08494 v 2.46832 q 0,3.63752 1.88371,5.52123 1.88372,1.81876 5.32637,1.81876 2.53327,0 4.28708,-0.84442 1.81876,-0.90938 2.14353,-2.59823 h 8.05451 q -0.84442,4.61186 -4.80672,7.40495 -3.9623,2.72814 -9.6784,2.72814 z m -7.21008,-22.99432 v 1.23416 l 14.29025,-0.065 v -1.23415 q 0,-3.70248 -1.81876,-5.71611 -1.81876,-2.01362 -5.26141,-2.01362 -3.57256,0 -5.39132,2.07858 -1.81876,2.01363 -1.81876,5.7161 z m 40.98706,22.34476 -12.0168,-35.72563 h 8.5092 l 6.8853,21.6952 q 0.64956,1.94867 1.10425,3.9623 0.51964,1.94867 0.71451,3.3777 0.25982,-1.42903 0.64956,-3.3777 0.45469,-2.01363 1.03929,-3.89734 l 6.82035,-21.76016 h 8.57415 l -11.95185,35.72563 z m 33.71204,-17.66795 v -7.53486 h 20.78583 v 7.53486 z m 49.95097,18.31751 q -4.61186,0 -8.05451,-1.68885 -3.3777,-1.7538 -5.26141,-4.87167 -1.88372,-3.18283 -1.88372,-7.46991 v -8.96389 q 0,-4.28707 1.88372,-7.40495 1.88371,-3.18283 5.26141,-4.87168 3.44265,-1.7538 8.05451,-1.7538 6.69043,0 10.71769,3.50761 4.09221,3.44265 4.28707,9.41858 h -7.98955 q -0.19486,-2.7931 -2.14354,-4.28708 -1.88371,-1.55894 -4.87167,-1.55894 -3.31274,0 -5.19646,1.81876 -1.88372,1.75381 -1.88372,5.06655 v 9.02884 q 0,3.31274 1.88372,5.1315 1.88372,1.81876 5.19646,1.81876 3.05291,0 4.93663,-1.49398 1.88372,-1.55894 2.07858,-4.35203 h 7.98955 q -0.19486,5.97592 -4.28707,9.48353 -4.02726,3.44265 -10.71769,3.44265 z m 38.45379,0 q -4.5469,0 -7.9246,-1.7538 -3.3777,-1.75381 -5.26141,-4.93664 -1.81876,-3.24778 -1.81876,-7.59981 v -8.44425 q 0,-4.35203 1.81876,-7.53486 1.88371,-3.24778 5.26141,-5.00159 3.3777,-1.7538 7.9246,-1.7538 4.48194,0 7.79468,1.7538 3.3777,1.75381 5.19646,4.93664 1.88371,3.11787 1.88371,7.33999 v 6.49557 h -22.08494 v 2.46832 q 0,3.63752 1.88372,5.52123 1.88371,1.81876 5.32637,1.81876 2.53327,0 4.28707,-0.84442 1.81876,-0.90938 2.14354,-2.59823 h 8.05451 q -0.84443,4.61186 -4.80673,7.40495 -3.96229,2.72814 -9.67839,2.72814 z m -7.21009,-22.99432 v 1.23416 l 14.29026,-0.065 v -1.23415 q 0,-3.70248 -1.81876,-5.71611 -1.81876,-2.01362 -5.26141,-2.01362 -3.57257,0 -5.39133,2.07858 -1.81876,2.01363 -1.81876,5.7161 z m 49.69114,22.34476 q -5.00159,0 -7.98955,-2.85805 -2.92301,-2.923 -2.92301,-7.85964 v -17.66795 h -9.87326 v -7.33999 h 9.87326 V 867.3922 h 8.18442 v 10.06814 h 14.2253 v 7.33999 h -14.2253 v 17.47309 q 0,1.55893 0.84443,2.59822 0.90938,0.97434 2.46831,0.97434 h 10.58778 v 7.33999 z m 35.46584,0.64956 q -4.54689,0 -7.92459,-1.7538 -3.3777,-1.75381 -5.26141,-4.93664 -1.81876,-3.24778 -1.81876,-7.59981 v -8.44425 q 0,-4.35203 1.81876,-7.53486 1.88371,-3.24778 5.26141,-5.00159 3.3777,-1.7538 7.92459,-1.7538 4.48195,0 7.79469,1.7538 3.3777,1.75381 5.19646,4.93664 1.88371,3.11787 1.88371,7.33999 v 6.49557 h -22.08494 v 2.46832 q 0,3.63752 1.88372,5.52123 1.88371,1.81876 5.32636,1.81876 2.53328,0 4.28708,-0.84442 1.81876,-0.90938 2.14354,-2.59823 h 8.05451 q -0.84443,4.61186 -4.80673,7.40495 -3.96229,2.72814 -9.6784,2.72814 z m -7.21008,-22.99432 v 1.23416 l 14.29026,-0.065 v -1.23415 q 0,-3.70248 -1.81876,-5.71611 -1.81876,-2.01362 -5.26142,-2.01362 -3.57256,0 -5.39132,2.07858 -1.81876,2.01363 -1.81876,5.7161 z m 32.93257,22.34476 v -35.72563 h 7.9246 v 6.95026 q 0.64955,-3.50761 3.18283,-5.52124 2.59822,-2.07858 6.69043,-2.07858 5.45628,0 8.5092,3.50761 3.05292,3.50761 3.05292,9.80831 v 3.3777 h -8.11946 v -2.98797 q 0,-3.24778 -1.68885,-4.93663 -1.68885,-1.7538 -4.80672,-1.7538 -3.24779,0 -4.93664,1.94867 -1.68885,1.94867 -1.68885,5.52123 v 21.89007 z m 48.19716,0.64956 q -5.45628,0 -8.63911,-3.05292 -3.11787,-3.11787 -3.11787,-8.11946 0,-5.19646 3.57256,-8.24937 3.57257,-3.11788 9.80831,-3.11788 h 8.70407 v -2.53327 q 0,-5.39132 -6.30071,-5.39132 -2.85805,0 -4.5469,1.10424 -1.68884,1.10425 -1.88371,3.11788 h -7.79469 q 0.25983,-4.80673 4.02726,-7.79469 3.83238,-2.98796 10.263,-2.98796 6.82035,0 10.58778,3.18283 3.76743,3.18283 3.76743,8.96389 v 24.22847 h -7.9246 v -6.69043 q -0.45469,3.44265 -3.24778,5.39132 -2.7931,1.94867 -7.27504,1.94867 z m 2.59823,-6.62548 q 3.57256,0 5.65114,-1.7538 2.07859,-1.75381 2.07859,-4.67682 v -4.22212 h -8.31433 q -2.66319,0 -4.22212,1.49399 -1.55894,1.49398 -1.55894,3.83238 0,2.40336 1.62389,3.89734 1.68885,1.42903 4.74177,1.42903 z"/>
          <path d="m 294.639,857.052 a 32.75,32.75 0 0 0 -32.75,32.75 32.75,32.75 0 0 0 32.75,32.75 32.75,32.75 0 0 0 32.75,-32.75 32.75,32.75 0 0 0 -4.076,-15.806 16.375,16.375 0 0 1 -12.3,5.572 16.375,16.375 0 0 1 -7.333,-1.77 9.148,9.148 0 0 1 -9.041,7.785 9.148,9.148 0 0 1 -9.148,-9.148 9.148,9.148 0 0 1 9.148,-9.148 9.148,9.148 0 0 1 0.554,0.018 16.375,16.375 0 0 1 -0.554,-4.112 16.375,16.375 0 0 1 1.236,-6.11 32.75,32.75 0 0 0 -1.236,-0.03 z"/>
      </g>
    </symbol>
  </defs>

  <!-- Layer 1: PowerShell Blue Background -->
  <rect x="0" y="0" width="1584" height="396" fill="#012456"/>

  <!-- Layer 2: The Animated Scrolling Text -->
  <g clip-path="url(#banner-clip)">
    <g class="scrolling-text">
      <use href="#code-block" />
      <use href="#code-block" y="684" />
    </g>
  </g>
  
  <!-- Layer 3: Logo -->
  <use href="#dev-logo" x="1072" y="184.8" width="512" height="211.2" />

</svg>